<?xml version="1.0" standalone="no"?>
<!DOCTYPE svg PUBLIC "-//W3C//DTD SVG 20010904//EN"
 "http://www.w3.org/TR/2001/REC-SVG-20010904/DTD/svg10.dtd">
<svg version="1.0" xmlns="http://www.w3.org/2000/svg"
 width="136.000000pt" height="136.000000pt" viewBox="0 0 136.000000 136.000000"
 preserveAspectRatio="xMidYMid meet">
<metadata>
Created by potrace 1.11, written by Peter Selinger 2001-2013
</metadata>
<g transform="translate(0.000000,136.000000) scale(0.100000,-0.100000)"
fill="#000000" stroke="none">
<path d="M577 1350 c-52 -10 -81 -52 -59 -86 13 -22 77 -31 187 -29 61 2 124
5 140 8 66 12 141 21 153 18 6 -1 12 1 12 4 0 6 -101 55 -123 59 -7 2 -32 8
-57 16 -51 14 -196 20 -253 10z"/>
<path d="M460 1322 c-44 -14 -161 -79 -200 -110 -171 -139 -263 -336 -256
-551 3 -88 20 -186 35 -203 4 -4 18 3 31 15 66 60 301 242 435 336 187 132
540 358 588 376 9 4 17 11 17 15 0 22 -49 18 -151 -11 -217 -61 -428 -82 -502
-48 -15 7 -30 23 -33 35 -7 28 11 84 38 119 22 28 21 35 -2 27z"/>
<path d="M1119 1137 c-172 -106 -521 -351 -585 -412 -6 -5 -35 -30 -65 -55
-97 -81 -283 -244 -331 -289 l-47 -44 17 -29 c17 -29 18 -29 77 -23 33 4 68 9
78 11 40 7 207 17 292 17 144 -1 282 -18 370 -48 63 -21 145 -65 145 -78 0 -5
-10 -2 -23 6 -33 21 -150 54 -222 62 -102 11 -296 6 -420 -10 -91 -13 -205
-38 -205 -46 0 -15 110 -95 174 -128 104 -52 194 -70 326 -67 184 6 316 62
446 191 160 158 228 353 200 575 -16 125 -79 261 -168 362 l-24 27 -35 -22z"/>
</g>
</svg>
